# xmcd
#
# Track frame offsets: 
#        150
#        17612
#        30060
#        50572
#        68085
#        90060
#        108322
#        126697
#        148750
#        173237
#        192587
#
# Disc length: 2950 seconds
#
# Revision: 8
# Processed by: cddbd v1.5.2PL0 Copyright (c) Steve Scherf et al.
# Submitted via: ExactAudioCopy v0.99pb4
#
DISCID=8f0b840b
DTITLE=Yanni - In My Time
DYEAR=1900
DGENRE=New Age
TTITLE0=In The Morning Light
TTITLE1=One Man's Dream
TTITLE2=Before I Go
TTITLE3=Enchantment
TTITLE4=The End Of August
TTITLE5=To Take ... To Hold
TTITLE6=In The Mirror
TTITLE7=Felitsa
TTITLE8=Whispers In The Dark
TTITLE9=Only A Memory
TTITLE10=Until The Last Moment
EXTD=
EXTT0=
EXTT1=
EXTT2=
EXTT3=
EXTT4=
EXTT5=
EXTT6=
EXTT7=
EXTT8=
EXTT9=
EXTT10=
PLAYORDER=
